mtllib GeneratorBox.mtl

o GeneratorBox

v -0.5 -0.5 -0.5
v  0.5 -0.5 -0.5
v  0.5  0.5 -0.5
v -0.5  0.5 -0.5
v -0.5 -0.5  0.5
v  0.5 -0.5  0.5
v  0.5  0.5  0.5
v -0.5  0.5  0.5

vt 0.0 1.0
vt 1.0 1.0
vt 1.0 0.0
vt 0.0 0.0

vn  0.0  0.0 -1.0
vn  0.0  0.0  1.0
vn -1.0  0.0  0.0
vn  1.0  0.0  0.0
vn  0.0 -1.0  0.0
vn  0.0  1.0  0.0

usemtl GeneratorBoxMaterial

# Front (-Z)
f 1/1/1 4/4/1 3/3/1 2/2/1

# Back (+Z)
f 5/1/2 6/2/2 7/3/2 8/4/2

# Left (-X)
f 5/1/3 8/4/3 4/3/3 1/2/3

# Right (+X)
f 2/1/4 3/4/4 7/3/4 6/2/4

# Bottom (-Y)
f 5/1/5 1/4/5 2/3/5 6/2/5

# Top (+Y)
f 4/1/6 8/4/6 7/3/6 3/2/6
